# xmcd
#
# Track frame offsets:
#	151
#	17206
#	32767
#	50344
#	66635
#	84216
#	100979
#	118538
#	134551
#	152064
#	166495
#	184306
#	200837
#	218256
#
# Disc length: 3120 seconds
#
# Revision: 1
# Processed by: cddbd v1.5.1PL0 Copyright (c) Steve Scherf et al.
# Submitted via: audiograbber 1.83.01
#
DISCID=c60c2e0e
DTITLE=Daeng Jitkorn and Sayun Nirundorn - Koo hit Loog Thung - vol.2
DYEAR=1900
DGENRE=Thai
TTITLE0=Kor pen ar lai ruk
TTITLE1=Tur pai tang lud
TTITLE2=Mon ruk tor jor wor
TTITLE3=Oak huk sa muk len
TTITLE4=Poo sao barn dai 
TTITLE5=Waen thong tong song sai
TTITLE6=Bok ai dai bor
TTITLE7=Rong hai tee fai daeng
TTITLE8=Yoo yin yom
TTITLE9=Nam sa khul hai khun kon deaw
TTITLE10=Huk nong dai song mao
TTITLE11=Rao luer kuer tang parn
TTITLE12=Num tah nah darn
TTITLE13=Sub num tah tee cafe
EXTD=
EXTT0=
EXTT1=
EXTT2=
EXTT3=
EXTT4=
EXTT5=
EXTT6=
EXTT7=
EXTT8=
EXTT9=
EXTT10=
EXTT11=
EXTT12=
EXTT13=
PLAYORDER=
